<svg xmlns="http://www.w3.org/2000/svg" width="17" height="17" viewBox="0 0 17 22"><path d="M9.031.281C4.488.281 0 3.22 0 7.977 0 11 1.754 12.719 2.816 12.719c.438 0 .692-1.188.692-1.52 0-.402-1.051-1.25-1.051-2.914 0-3.457 2.711-5.906 6.215-5.906 3.015 0 5.246 1.664 5.246 4.719 0 2.28-.941 6.562-3.996 6.562-1.102 0-2.047-.773-2.047-1.883 0-1.625 1.168-3.195 1.168-4.87 0-2.848-4.156-2.333-4.156 1.105 0 .722.093 1.523.426 2.18-.61 2.554-1.86 6.355-1.86 8.984 0 .812.121 1.613.2 2.426.152.16.074.144.304.062 2.23-2.965 2.152-3.543 3.16-7.426.547 1.008 1.953 1.547 3.07 1.547 4.7 0 6.813-4.445 6.813-8.453 0-4.27-3.797-7.05-7.969-7.05zm0 0" id="surface1"/></svg>