<svg xmlns="http://www.w3.org/2000/svg" width="17" height="17"><path d="M15.254 5.04c.008.147.008.3.008.452 0 4.606-3.504 9.91-9.91 9.91A9.845 9.845 0 010 13.84c.281.031.55.043.84.043a6.996 6.996 0 004.328-1.488A3.487 3.487 0 011.91 9.977a3.765 3.765 0 001.574-.063A3.484 3.484 0 01.691 6.492V6.45a3.496 3.496 0 001.575.446A3.492 3.492 0 01.71 3.992c0-.648.172-1.242.477-1.758A9.909 9.909 0 008.37 5.88a3.86 3.86 0 01-.086-.797 3.48 3.48 0 013.485-3.484 3.47 3.47 0 012.543 1.097 6.79 6.79 0 002.21-.84 3.482 3.482 0 01-1.53 1.922A7.067 7.067 0 0017 3.234a7.439 7.439 0 01-1.746 1.805zm0 0" id="surface1"/></svg>